<svg xmlns="http://www.w3.org/2000/svg" viewBox="0 0 200 200" fill="none" stroke="#0e0e0e" stroke-width="6" stroke-linecap="round" stroke-linejoin="round">
<path fill="#f5f5f2" d="M100 22c-44 0-70 30-70 68 0 22 10 36 24 44v22c0 8 6 12 14 12h64c8 0 14-4 14-12v-22c14-8 24-22 24-44 0-38-26-68-70-68Z"/>
<path fill="#ff4f93" d="M58 92c0-12 8-20 20-20s18 8 18 18-8 18-18 18-20-4-20-16Zm84 0c0-12-8-20-20-20s-18 8-18 18 8 18 18 18 20-4 20-16Z"/>
<path fill="#0e0e0e" d="M100 112l-9 16h18Z"/>
<path d="M78 140v28M100 140v28M122 140v28M64 146h72" stroke-width="5"/>
<path d="M62 48c8-8 18-12 30-14" stroke-width="3"/>
</svg>
