<svg xmlns="http://www.w3.org/2000/svg" viewBox="0 0 32 32">
    <style>
        .bg { fill: #2d4ad8 }
        .mark { fill: #ffffff }
        @media (prefers-color-scheme: dark) { .bg { fill: #4d67ea } .mark { fill: #ffffff } }
    </style>
    <circle class="bg" cx="16" cy="16" r="16"/>
    <path class="mark" fill-rule="evenodd" transform="translate(16 16) scale(.8) translate(-16 -16)" d="M3 22.6 12.2 17.4c1.4-4.2 4.7-7 8.8-7 1.3 0 2.4-.9 3.2-1.8 1.2-1.3 3.2-1 4 .5l1.4 1.1-1.6.7c.3 5-3.4 9.4-8.7 9.7-2.7.2-4.9-.4-6.5-1.3L3.6 23.7 3 22.6Zm22.6-12.9a.95.95 0 1 0 0 1.9.95.95 0 0 0 0-1.9Z"/>
</svg>
